<?xml version="1.0" encoding="UTF-8"?>
<svg version="1.1" xmlns="http://www.w3.org/2000/svg" width="512" height="512">
<path d="M0 0 C9.5475883 8.83013947 15.0155463 20.57449046 15.95637512 33.50775146 C16.00772801 36.82267104 15.97864819 40.12314826 15.90234375 43.4375 C15.88204102 45.14486328 15.88204102 45.14486328 15.86132812 46.88671875 C15.82644429 49.65416987 15.77743692 52.42056105 15.71484375 55.1875 C16.58092239 55.18335193 16.58092239 55.18335193 17.46449757 55.17912006 C31.55502259 55.11268263 45.64552394 55.06313341 59.73617268 55.03206348 C66.55049093 55.01663647 73.36470422 54.99562737 80.17895508 54.96118164 C86.76011598 54.92793021 93.34119684 54.91062571 99.9224453 54.90286827 C102.42814025 54.8973428 104.93382953 54.88655304 107.43947792 54.87030983 C110.96018783 54.84840253 114.48045315 54.84553868 118.0012207 54.84692383 C119.02765686 54.836138 120.05409302 54.82535217 121.1116333 54.8142395 C135.2906108 54.87425378 147.25107968 59.67675534 157.71484375 69.1875 C168.09843046 80.48728554 171.34700187 93.51636347 171.0234375 108.44921875 C170.43257512 120.83281162 164.43420608 131.99652817 155.52734375 140.5 C144.63909225 149.54876874 133.06265465 152.5094516 119.25 152.41455078 C118.12717117 152.41484283 117.00434235 152.41513489 115.8474884 152.41543579 C112.15736001 152.41404884 108.46743663 152.39851734 104.77734375 152.3828125 C102.21045034 152.37908012 99.6435555 152.37623421 97.07666016 152.37423706 C91.0242993 152.36739594 84.97202234 152.35165285 78.91969299 152.33153808 C72.02484847 152.30912436 65.13000033 152.29817194 58.2351284 152.28814721 C44.06166116 152.2672849 29.88825505 152.23214323 15.71484375 152.1875 C15.77635494 163.15887884 15.85367378 174.13002568 15.95055866 185.10115242 C15.99507436 190.19681304 16.03437072 195.29239716 16.0612793 200.38818359 C16.08750134 205.31613885 16.12803383 210.24379667 16.17803001 215.17156601 C16.19457201 217.04114933 16.20616441 218.91078394 16.21245766 220.78042984 C16.30001701 244.42631573 21.46802448 266.15839031 38.28125 283.87890625 C52.93936112 297.78411279 70.93522052 304.65938232 90.77734375 306.1875 C103.92922819 307.20449005 114.30467266 309.52771166 124.71484375 318.1875 C125.35035156 318.71085937 125.98585938 319.23421875 126.640625 319.7734375 C135.95174643 328.23809335 140.84918204 339.82372262 141.9921875 352.1875 C142.43159481 365.68609261 138.29568943 378.06790056 129.58984375 388.375 C122.66925905 395.68644828 114.51534799 400.78360273 104.71484375 403.1875 C103.98910156 403.37054688 103.26335937 403.55359375 102.515625 403.7421875 C66.26514883 409.50586153 23.17446771 394.90753439 -6.23291016 374.17626953 C-41.24753918 348.56855577 -66.38515197 314.11848282 -77.16015625 271.8125 C-77.3511792 271.06589111 -77.54220215 270.31928223 -77.73901367 269.55004883 C-81.22731879 254.89916731 -81.58408928 240.45662705 -81.57568359 225.47973633 C-81.58167989 223.32953155 -81.58848794 221.17932891 -81.59603882 219.02912903 C-81.61358476 213.23186409 -81.61838909 207.43465832 -81.61967039 201.63736939 C-81.62109799 198.00876082 -81.62537884 194.38016701 -81.63066483 190.75156212 C-81.64912079 178.07468088 -81.6573402 165.3978415 -81.65576172 152.72094727 C-81.65455854 140.93004799 -81.67570695 129.13933122 -81.70724905 117.34847814 C-81.73343225 107.19689574 -81.74412829 97.04537294 -81.7428509 86.89375705 C-81.74234228 80.84273408 -81.74797184 74.7918739 -81.769207 68.74088478 C-81.78862613 63.0533908 -81.78868857 57.36621447 -81.77417374 51.67870903 C-81.77208978 49.59869546 -81.77676173 47.51866178 -81.78889465 45.43868256 C-81.87418942 29.79716162 -80.56060143 17.70871257 -70.28515625 5.1875 C-69.71152344 4.47722656 -69.13789063 3.76695313 -68.546875 3.03515625 C-50.54721547 -17.04583436 -20.11882771 -15.95749754 0 0 Z " fill="#6E93F3" transform="translate(211.28515625,59.8125)"/>
<path d="M0 0 C0.33 0 0.66 0 1 0 C1.15855469 0.87140625 1.31710938 1.7428125 1.48046875 2.640625 C5.55608946 23.44655613 15.25208938 41.89080326 32.9921875 54.12109375 C46.43929938 62.52117273 59.40392749 66.79407354 75.0625 68 C88.21438444 69.01699005 98.58982891 71.34021166 109 80 C109.63550781 80.52335937 110.27101563 81.04671875 110.92578125 81.5859375 C120.23690268 90.05059335 125.13433829 101.63622262 126.27734375 114 C126.71675106 127.49859261 122.58084568 139.88040056 113.875 150.1875 C105.07293052 159.48669633 94.0732641 165.11075382 81.30078125 166.23828125 C58.7216376 166.79907044 37.4114483 157.9366186 21.0625 142.5 C3.22900623 123.23625109 -0.64192554 101.82738858 -0.390625 76.66015625 C-0.38314842 74.43957534 -0.3774622 72.21898775 -0.37347412 69.99839783 C-0.35832933 64.20335103 -0.31914561 58.40871645 -0.2746582 52.61383057 C-0.23346271 46.68076144 -0.21541164 40.74762458 -0.1953125 34.81445312 C-0.15263898 23.20945604 -0.08452547 11.60476253 0 0 Z " fill="#476FDC" transform="translate(227,298)"/>
</svg>
